# xmcd CD database file
#
# Track frame offsets:
#	150
#	17027
#	33229
#	47481
#	57008
#	68185
#	83937
#	101114
#	121441
#	151368
#	161045
#	184072
#	196524
#	211901
#
# Disc length: 3220 seconds
#
# Revision: 0
# Processed by: cddbd v1.5.1PL0 Copyright (c) Steve Scherf et al.
# Submitted via: CDex 1.51
#
DISCID=b30c920e
DTITLE=Krysna - From the Attic Window
DYEAR=1998
DGENRE=New Age
TTITLE0=Spaceborne
TTITLE1=The Little Elephant's March
TTITLE2=Phantasmagoria
TTITLE3=Always and Forever
TTITLE4=Deep Breath of You
TTITLE5=Whatever is...
TTITLE6=The Gauntlet
TTITLE7=From the Storm to the Harbor
TTITLE8=The Spirit of the Pioneer
TTITLE9=Video Game
TTITLE10=Arcadia
TTITLE11=Marathon
TTITLE12=Fire Dance
TTITLE13=It Smells Like Rain
EXTD=YEAR: 1998
EXTT0=
EXTT1=
EXTT2=
EXTT3=
EXTT4=
EXTT5=
EXTT6=
EXTT7=
EXTT8=
EXTT9=
EXTT10=
EXTT11=
EXTT12=
EXTT13=
PLAYORDER=
